<svg xmlns="http://www.w3.org/2000/svg" xmlns:xlink="http://www.w3.org/1999/xlink" width="500" zoomAndPan="magnify" viewBox="0 0 375 374.999991" height="500" preserveAspectRatio="xMidYMid meet" version="1.0"><defs><g/><clipPath id="4225254c17"><rect x="0" width="228" y="0" height="326"/></clipPath></defs><rect x="-37.5" width="450" fill="#ffffff" y="-37.499999" height="449.999989" fill-opacity="1"/><rect x="-37.5" width="450" fill="#f6f4f0" y="-37.499999" height="449.999989" fill-opacity="1"/><g transform="matrix(1, 0, 0, 1, 95, 6)"><g clip-path="url(#4225254c17)"><g fill="#222222" fill-opacity="1"><g transform="translate(0.799806, 263.96849)"><g><path d="M 81.234375 -158.375 C 93.984375 -158.375 105.0625 -156.394531 114.46875 -152.4375 C 123.875 -148.488281 131.144531 -142.535156 136.28125 -134.578125 C 141.425781 -126.617188 144 -116.707031 144 -104.84375 L 144 0 L 104.84375 0 L 104.84375 -16.09375 C 95.519531 -8.613281 86.8125 -3.507812 78.71875 -0.78125 C 70.632812 1.9375 62.945312 3.296875 55.65625 3.296875 C 45.894531 3.296875 37.410156 1.582031 30.203125 -1.84375 C 22.992188 -5.269531 17.410156 -10.234375 13.453125 -16.734375 C 9.492188 -23.242188 7.515625 -31.070312 7.515625 -40.21875 C 7.515625 -47.78125 8.875 -54.394531 11.59375 -60.0625 C 14.320312 -65.738281 18.148438 -70.6875 23.078125 -74.90625 C 28.003906 -79.125 33.804688 -82.769531 40.484375 -85.84375 C 47.160156 -88.925781 54.414062 -91.566406 62.25 -93.765625 L 104.84375 -105.890625 C 104.488281 -112.140625 102.132812 -116.910156 97.78125 -120.203125 C 93.425781 -123.503906 87.472656 -125.15625 79.921875 -125.15625 C 74.023438 -125.15625 68.019531 -124.226562 61.90625 -122.375 C 55.800781 -120.53125 49.9375 -118.023438 44.3125 -114.859375 C 38.6875 -111.691406 33.71875 -108.085938 29.40625 -104.046875 L 10.421875 -133.453125 C 21.140625 -142.160156 32.566406 -148.488281 44.703125 -152.4375 C 56.835938 -156.394531 69.015625 -158.375 81.234375 -158.375 Z M 68.578125 -28.09375 C 74.734375 -28.09375 80.84375 -29.648438 86.90625 -32.765625 C 92.96875 -35.890625 98.945312 -40 104.84375 -45.09375 L 104.84375 -74.109375 L 72.796875 -63.828125 C 65.585938 -61.535156 60.222656 -58.894531 56.703125 -55.90625 C 53.191406 -52.925781 51.4375 -48.84375 51.4375 -43.65625 C 51.4375 -38.8125 52.953125 -35.003906 55.984375 -32.234375 C 59.015625 -29.472656 63.210938 -28.09375 68.578125 -28.09375 Z M 68.578125 -28.09375 "/></g></g></g><g fill="#222222" fill-opacity="1"><g transform="translate(142.368396, 263.96849)"><g><path d="M 27.171875 0 L 27.171875 -48 L 74.765625 -48 L 74.765625 0 Z M 27.171875 0 "/></g></g></g></g></g></svg>